<svg xmlns="http://www.w3.org/2000/svg" xmlns:xlink="http://www.w3.org/1999/xlink" width="500" zoomAndPan="magnify" viewBox="0 0 375 374.999991" height="500" preserveAspectRatio="xMidYMid meet" version="1.0"><defs><g/></defs><rect x="-37.5" width="450" fill="rgb(100%, 100%, 100%)" y="-37.499999" height="449.999989" fill-opacity="1"/><rect x="-37.5" width="450" fill="rgb(10.978699%, 10.978699%, 11.759949%)" y="-37.499999" height="449.999989" fill-opacity="1"/><rect x="-37.5" width="450" fill="rgb(100%, 100%, 100%)" y="-37.499999" height="449.999989" fill-opacity="1"/><rect x="-37.5" width="450" fill="rgb(10.978699%, 10.978699%, 11.759949%)" y="-37.499999" height="449.999989" fill-opacity="1"/><g fill="rgb(18.818665%, 81.959534%, 34.509277%)" fill-opacity="1"><g transform="translate(136.851557, 211.863202)"><g><path d="M 69.484375 -48.332031 C 83.226562 -51.574219 93.882812 -63.925781 93.882812 -78.59375 C 93.882812 -96.199219 79.519531 -109.785156 62.84375 -109.785156 L 24.089844 -109.785156 C 10.652344 -109.785156 -0.15625 -99.132812 -0.15625 -85.390625 L -0.15625 -25.015625 C -0.15625 -11.734375 10.964844 -0.15625 24.089844 -0.15625 L 64.851562 -0.15625 C 81.21875 -0.15625 99.132812 -17.757812 99.132812 -33.96875 C 99.132812 -48.023438 96.199219 -50.800781 91.101562 -56.359375 C 85.542969 -50.335938 77.976562 -46.785156 69.484375 -46.476562 C 68.402344 -46.476562 68.402344 -48.023438 69.484375 -48.332031 Z M 69.484375 -48.332031 "/></g></g></g><g fill="rgb(100%, 100%, 100%)" fill-opacity="1"><g transform="translate(111.18062, 246.640165)"><g><path d="M 1.980469 0 L 1.980469 -18.660156 L 11.015625 -18.660156 C 12.820312 -18.660156 14.230469 -18.242188 15.242188 -17.410156 C 16.257812 -16.574219 16.765625 -15.417969 16.765625 -13.9375 C 16.765625 -12.386719 16.195312 -11.210938 15.054688 -10.40625 C 14.867188 -10.273438 14.660156 -10.148438 14.433594 -10.039062 C 14.871094 -9.871094 15.261719 -9.667969 15.597656 -9.429688 C 16.792969 -8.609375 17.390625 -7.414062 17.390625 -5.839844 C 17.390625 -3.933594 16.800781 -2.484375 15.617188 -1.492188 C 14.4375 -0.496094 12.714844 0 10.445312 0 Z M 5.710938 -15.445312 L 5.710938 -11.347656 L 10.167969 -11.347656 C 11.140625 -11.347656 11.867188 -11.53125 12.351562 -11.894531 C 12.832031 -12.257812 13.074219 -12.808594 13.074219 -13.542969 C 13.074219 -14.179688 12.820312 -14.652344 12.3125 -14.972656 C 11.804688 -15.289062 11.039062 -15.445312 10.015625 -15.445312 Z M 5.710938 -8.210938 L 5.710938 -3.238281 L 10.445312 -3.238281 C 11.460938 -3.238281 12.222656 -3.457031 12.730469 -3.898438 C 13.238281 -4.335938 13.492188 -5 13.492188 -5.890625 C 13.492188 -6.667969 13.230469 -7.25 12.710938 -7.632812 C 12.191406 -8.019531 11.410156 -8.210938 10.371094 -8.210938 Z M 5.710938 -8.210938 "/></g></g></g><g fill="rgb(100%, 100%, 100%)" fill-opacity="1"><g transform="translate(129.379344, 246.640165)"><g><path d="M 1.789062 -18.660156 L 5.433594 -18.660156 L 5.433594 0 L 1.789062 0 Z M 1.789062 -18.660156 "/></g></g></g><g fill="rgb(100%, 100%, 100%)" fill-opacity="1"><g transform="translate(136.028806, 246.640165)"><g><path d="M 5 0.355469 C 3.722656 0.355469 2.695312 -0.0117188 1.917969 -0.742188 C 1.136719 -1.472656 0.75 -2.4375 0.75 -3.628906 C 0.75 -4.890625 1.101562 -5.898438 1.800781 -6.65625 C 2.503906 -7.414062 3.527344 -7.890625 4.875 -8.085938 L 7.273438 -8.414062 C 7.898438 -8.5 8.417969 -8.644531 8.835938 -8.847656 C 9.011719 -8.929688 9.148438 -9.082031 9.246094 -9.304688 C 9.34375 -9.523438 9.378906 -9.75 9.355469 -9.976562 C 9.304688 -10.367188 9.105469 -10.671875 8.757812 -10.890625 C 8.34375 -11.152344 7.746094 -11.285156 6.96875 -11.285156 C 6.273438 -11.285156 5.734375 -11.113281 5.34375 -10.777344 C 4.953125 -10.4375 4.746094 -9.960938 4.722656 -9.34375 L 1.230469 -9.34375 C 1.308594 -10.957031 1.855469 -12.167969 2.882812 -12.972656 C 3.90625 -13.777344 5.40625 -14.179688 7.386719 -14.179688 C 9.105469 -14.179688 10.460938 -13.816406 11.457031 -13.09375 C 12.449219 -12.371094 12.945312 -11.382812 12.945312 -10.128906 L 12.945312 -2.410156 C 12.945312 -1.792969 12.996094 -1.359375 13.097656 -1.109375 C 13.199219 -0.859375 13.402344 -0.664062 13.707031 -0.519531 L 13.707031 -0.0117188 L 9.773438 -0.0117188 C 9.613281 -0.570312 9.507812 -1.117188 9.457031 -1.648438 L 9.445312 -1.675781 C 8.300781 -0.320312 6.820312 0.355469 5 0.355469 Z M 9.378906 -5.101562 L 9.378906 -6.6875 C 8.957031 -6.453125 8.398438 -6.261719 7.703125 -6.117188 L 6.359375 -5.863281 C 5.722656 -5.746094 5.242188 -5.527344 4.914062 -5.210938 C 4.582031 -4.894531 4.417969 -4.492188 4.417969 -4.011719 C 4.417969 -3.460938 4.566406 -3.03125 4.863281 -2.714844 C 5.15625 -2.402344 5.570312 -2.246094 6.105469 -2.246094 C 7.273438 -2.246094 8.203125 -2.65625 8.898438 -3.476562 C 9.03125 -3.636719 9.148438 -3.875 9.242188 -4.1875 C 9.332031 -4.5 9.378906 -4.804688 9.378906 -5.101562 Z M 9.378906 -5.101562 "/></g></g></g><g fill="rgb(100%, 100%, 100%)" fill-opacity="1"><g transform="translate(149.91242, 246.640165)"><g><path d="M 13.621094 -5.113281 C 13.433594 -3.398438 12.792969 -2.054688 11.703125 -1.089844 C 10.609375 -0.125 9.191406 0.355469 7.4375 0.355469 C 5.347656 0.355469 3.734375 -0.265625 2.59375 -1.511719 C 1.457031 -2.753906 0.886719 -4.527344 0.886719 -6.828125 C 0.886719 -9.078125 1.480469 -10.867188 2.660156 -12.191406 C 3.839844 -13.515625 5.433594 -14.179688 7.4375 -14.179688 C 9.214844 -14.179688 10.671875 -13.6875 11.804688 -12.707031 C 12.9375 -11.722656 13.542969 -10.433594 13.621094 -8.835938 L 9.914062 -8.835938 C 9.878906 -9.519531 9.636719 -10.074219 9.183594 -10.496094 C 8.730469 -10.921875 8.148438 -11.132812 7.4375 -11.132812 C 6.523438 -11.132812 5.828125 -10.765625 5.351562 -10.035156 C 4.871094 -9.300781 4.632812 -8.234375 4.632812 -6.828125 C 4.632812 -5.457031 4.871094 -4.414062 5.351562 -3.699219 C 5.828125 -2.984375 6.523438 -2.628906 7.4375 -2.628906 C 8.097656 -2.628906 8.65625 -2.855469 9.113281 -3.3125 C 9.570312 -3.769531 9.835938 -4.371094 9.914062 -5.113281 Z M 13.621094 -5.113281 "/></g></g></g><g fill="rgb(100%, 100%, 100%)" fill-opacity="1"><g transform="translate(163.796036, 246.640165)"><g><path d="M 1.789062 0 L 1.789062 -18.660156 L 5.433594 -18.660156 L 5.433594 -8.582031 L 9.976562 -13.808594 L 14.46875 -13.808594 L 9.480469 -8.582031 L 14.597656 0 L 10.269531 0 L 6.941406 -5.941406 L 5.433594 -4.355469 L 5.433594 0 Z M 1.789062 0 "/></g></g></g><g fill="rgb(100%, 100%, 100%)" fill-opacity="1"><g transform="translate(177.679653, 246.640165)"><g><path d="M 1.980469 0 L 1.980469 -18.660156 L 9.785156 -18.660156 C 11.910156 -18.660156 13.527344 -18.160156 14.636719 -17.167969 C 15.742188 -16.171875 16.296875 -14.722656 16.296875 -12.820312 C 16.296875 -10.804688 15.742188 -9.277344 14.636719 -8.230469 C 13.527344 -7.1875 11.910156 -6.664062 9.785156 -6.664062 C 8.28125 -6.671875 6.976562 -6.664062 5.875 -6.636719 L 5.875 0 Z M 5.875 -9.875 L 9.125 -9.875 C 10.21875 -9.875 11.035156 -10.117188 11.582031 -10.597656 C 12.128906 -11.082031 12.402344 -11.808594 12.402344 -12.78125 C 12.402344 -13.671875 12.128906 -14.335938 11.582031 -14.78125 C 11.035156 -15.226562 10.21875 -15.445312 9.125 -15.445312 L 5.875 -15.445312 Z M 5.875 -9.875 "/></g></g></g><g fill="rgb(100%, 100%, 100%)" fill-opacity="1"><g transform="translate(194.444239, 246.640165)"><g><path d="M 1.828125 0 L 1.828125 -13.808594 L 5.46875 -13.808594 L 5.46875 0 Z M 1.789062 -18.796875 L 5.496094 -18.796875 L 5.496094 -15.421875 L 1.789062 -15.421875 Z M 1.789062 -18.796875 "/></g></g></g><g fill="rgb(100%, 100%, 100%)" fill-opacity="1"><g transform="translate(201.093702, 246.640165)"><g><path d="M 1.664062 0 L 1.664062 -13.808594 L 5.128906 -13.808594 L 5.128906 -11.335938 C 5.253906 -11.605469 5.398438 -11.867188 5.558594 -12.121094 C 6.414062 -13.492188 7.519531 -14.179688 8.871094 -14.179688 L 9.699219 -14.164062 L 9.699219 -10.445312 C 9.375 -10.480469 9.011719 -10.496094 8.605469 -10.496094 C 7.496094 -10.496094 6.671875 -10.222656 6.125 -9.671875 C 5.578125 -9.121094 5.304688 -8.289062 5.304688 -7.171875 L 5.304688 0 Z M 1.664062 0 "/></g></g></g><g fill="rgb(100%, 100%, 100%)" fill-opacity="1"><g transform="translate(210.636821, 246.640165)"><g><path d="M 5 0.355469 C 3.722656 0.355469 2.695312 -0.0117188 1.917969 -0.742188 C 1.136719 -1.472656 0.75 -2.4375 0.75 -3.628906 C 0.75 -4.890625 1.101562 -5.898438 1.800781 -6.65625 C 2.503906 -7.414062 3.527344 -7.890625 4.875 -8.085938 L 7.273438 -8.414062 C 7.898438 -8.5 8.417969 -8.644531 8.835938 -8.847656 C 9.011719 -8.929688 9.148438 -9.082031 9.246094 -9.304688 C 9.34375 -9.523438 9.378906 -9.75 9.355469 -9.976562 C 9.304688 -10.367188 9.105469 -10.671875 8.757812 -10.890625 C 8.34375 -11.152344 7.746094 -11.285156 6.96875 -11.285156 C 6.273438 -11.285156 5.734375 -11.113281 5.34375 -10.777344 C 4.953125 -10.4375 4.746094 -9.960938 4.722656 -9.34375 L 1.230469 -9.34375 C 1.308594 -10.957031 1.855469 -12.167969 2.882812 -12.972656 C 3.90625 -13.777344 5.40625 -14.179688 7.386719 -14.179688 C 9.105469 -14.179688 10.460938 -13.816406 11.457031 -13.09375 C 12.449219 -12.371094 12.945312 -11.382812 12.945312 -10.128906 L 12.945312 -2.410156 C 12.945312 -1.792969 12.996094 -1.359375 13.097656 -1.109375 C 13.199219 -0.859375 13.402344 -0.664062 13.707031 -0.519531 L 13.707031 -0.0117188 L 9.773438 -0.0117188 C 9.613281 -0.570312 9.507812 -1.117188 9.457031 -1.648438 L 9.445312 -1.675781 C 8.300781 -0.320312 6.820312 0.355469 5 0.355469 Z M 9.378906 -5.101562 L 9.378906 -6.6875 C 8.957031 -6.453125 8.398438 -6.261719 7.703125 -6.117188 L 6.359375 -5.863281 C 5.722656 -5.746094 5.242188 -5.527344 4.914062 -5.210938 C 4.582031 -4.894531 4.417969 -4.492188 4.417969 -4.011719 C 4.417969 -3.460938 4.566406 -3.03125 4.863281 -2.714844 C 5.15625 -2.402344 5.570312 -2.246094 6.105469 -2.246094 C 7.273438 -2.246094 8.203125 -2.65625 8.898438 -3.476562 C 9.03125 -3.636719 9.148438 -3.875 9.242188 -4.1875 C 9.332031 -4.5 9.378906 -4.804688 9.378906 -5.101562 Z M 9.378906 -5.101562 "/></g></g></g><g fill="rgb(100%, 100%, 100%)" fill-opacity="1"><g transform="translate(224.520438, 246.640165)"><g><path d="M 8.035156 0.0742188 C 7.425781 0.125 6.675781 0.152344 5.789062 0.152344 C 4.5 0.152344 3.578125 -0.078125 3.015625 -0.539062 C 2.453125 -1 2.171875 -1.753906 2.171875 -2.804688 L 2.171875 -11.257812 L 0.253906 -11.257812 L 0.253906 -13.808594 L 2.171875 -13.808594 L 2.171875 -17.527344 L 5.8125 -17.527344 L 5.8125 -13.808594 L 8.035156 -13.808594 L 8.035156 -11.257812 L 5.8125 -11.257812 L 5.8125 -3.414062 C 5.8125 -3.09375 5.910156 -2.882812 6.097656 -2.78125 C 6.289062 -2.679688 6.683594 -2.628906 7.285156 -2.628906 L 8.035156 -2.628906 Z M 8.035156 0.0742188 "/></g></g></g><g fill="rgb(100%, 100%, 100%)" fill-opacity="1"><g transform="translate(232.60404, 246.640165)"><g><path d="M 7.160156 0.355469 C 5.058594 0.355469 3.441406 -0.292969 2.304688 -1.585938 C 1.164062 -2.882812 0.597656 -4.726562 0.597656 -7.121094 C 0.597656 -9.328125 1.175781 -11.058594 2.335938 -12.304688 C 3.496094 -13.554688 5.101562 -14.179688 7.160156 -14.179688 C 9.265625 -14.179688 10.886719 -13.542969 12.027344 -12.269531 C 13.164062 -10.996094 13.734375 -9.179688 13.734375 -6.828125 C 13.75 -6.558594 13.730469 -6.28125 13.671875 -6.003906 L 4.265625 -6.003906 C 4.347656 -4.914062 4.589844 -4.09375 4.988281 -3.554688 C 5.496094 -2.878906 6.34375 -2.539062 7.527344 -2.539062 C 8.078125 -2.539062 8.585938 -2.695312 9.054688 -3.007812 C 9.527344 -3.320312 9.808594 -3.699219 9.902344 -4.136719 L 13.605469 -4.136719 C 13.292969 -2.734375 12.566406 -1.632812 11.429688 -0.835938 C 10.292969 -0.0429688 8.867188 0.355469 7.160156 0.355469 Z M 9.9375 -8.328125 C 9.855469 -9.15625 9.632812 -9.804688 9.277344 -10.269531 C 8.8125 -10.886719 8.089844 -11.195312 7.109375 -11.195312 C 6.167969 -11.195312 5.453125 -10.835938 4.964844 -10.117188 C 4.660156 -9.660156 4.4375 -9.0625 4.304688 -8.328125 Z M 9.9375 -8.328125 "/></g></g></g><g fill="rgb(100%, 100%, 100%)" fill-opacity="1"><g transform="translate(246.487657, 246.640165)"><g><path d="M 0.367188 0 L 6.410156 -9.445312 L 0.773438 -18.660156 L 5.382812 -18.660156 L 8.667969 -12.628906 L 12.070312 -18.660156 L 16.5625 -18.660156 L 10.878906 -9.734375 L 16.96875 0 L 12.3125 0 L 8.65625 -6.421875 L 4.976562 0 Z M 0.367188 0 "/></g></g></g><g fill="rgb(100%, 100%, 100%)" fill-opacity="1"><g transform="translate(89.261468, 277.722111)"><g><path d="M 2.746094 -0.445312 C 1.390625 -0.445312 1.464844 -2.578125 1.464844 -3.433594 C 1.464844 -4.320312 1.453125 -6.179688 2.796875 -6.179688 C 4.117188 -6.179688 4.128906 -4.1875 4.128906 -3.289062 C 4.128906 -2.339844 4.105469 -0.445312 2.746094 -0.445312 Z M 1.464844 -0.625 L 1.488281 -0.625 C 1.800781 -0.0703125 2.269531 0.167969 2.914062 0.167969 C 4.691406 0.167969 4.824219 -2.003906 4.824219 -3.335938 C 4.824219 -4.597656 4.65625 -6.792969 2.976562 -6.792969 C 2.363281 -6.792969 1.894531 -6.539062 1.488281 -6.085938 L 1.464844 -6.085938 L 1.464844 -9 L 0.769531 -9 L 0.769531 0 L 1.464844 0 Z M 1.464844 -0.625 "/></g></g></g><g fill="rgb(100%, 100%, 100%)" fill-opacity="1"><g transform="translate(102.977482, 277.722111)"><g><path d="M 1.679688 0 L 1.679688 -9 L 0.984375 -9 L 0.984375 0 Z M 1.679688 0 "/></g></g></g><g fill="rgb(100%, 100%, 100%)" fill-opacity="1"><g transform="translate(114.029482, 277.722111)"><g><path d="M 3.253906 -2.410156 C 3.253906 -1.921875 3.203125 -1.355469 2.914062 -0.9375 C 2.710938 -0.636719 2.386719 -0.445312 1.933594 -0.445312 C 1.210938 -0.445312 1.007812 -0.949219 1.007812 -1.597656 C 1.007812 -2.375 1.164062 -2.652344 1.871094 -2.964844 C 2.328125 -3.15625 2.796875 -3.324219 3.253906 -3.574219 Z M 1.164062 -4.957031 C 1.273438 -5.542969 1.261719 -6.179688 2.242188 -6.179688 C 2.855469 -6.179688 3.097656 -5.914062 3.191406 -5.519531 C 3.238281 -5.242188 3.265625 -4.691406 3.214844 -4.414062 C 3.203125 -4.332031 3.144531 -4.199219 3.035156 -4.152344 C 2.449219 -3.875 1.8125 -3.683594 1.222656 -3.40625 C 0.527344 -3.046875 0.3125 -2.472656 0.3125 -1.703125 C 0.3125 -0.660156 0.601562 0.167969 1.8125 0.167969 C 2.386719 0.167969 2.929688 -0.0585938 3.277344 -0.539062 L 3.289062 -0.539062 C 3.359375 -0.226562 3.347656 -0.0585938 3.660156 0.0585938 C 3.910156 0.109375 4.1875 0.121094 4.429688 0.0234375 L 4.429688 -0.480469 C 4.019531 -0.46875 3.949219 -0.527344 3.949219 -0.925781 L 3.949219 -4.992188 C 3.949219 -5.460938 3.925781 -5.902344 3.625 -6.289062 C 3.3125 -6.671875 2.808594 -6.792969 2.257812 -6.792969 C 1.105469 -6.792969 0.457031 -6.121094 0.492188 -4.957031 Z M 1.164062 -4.957031 "/></g></g></g><g fill="rgb(100%, 100%, 100%)" fill-opacity="1"><g transform="translate(127.085494, 277.722111)"><g><path d="M 3.601562 -2.195312 C 3.527344 -1.441406 3.445312 -0.445312 2.472656 -0.445312 C 1.117188 -0.445312 1.140625 -2.304688 1.140625 -3.226562 C 1.140625 -4.261719 1.078125 -6.144531 2.386719 -6.179688 C 3.144531 -6.203125 3.527344 -5.472656 3.550781 -4.667969 L 4.234375 -4.667969 C 4.246094 -5.773438 3.625 -6.792969 2.4375 -6.792969 C 0.601562 -6.792969 0.445312 -4.777344 0.445312 -3.347656 C 0.445312 -1.859375 0.515625 0.167969 2.460938 0.167969 C 3.851562 0.167969 4.308594 -0.972656 4.296875 -2.195312 Z M 3.601562 -2.195312 "/></g></g></g><g fill="rgb(100%, 100%, 100%)" fill-opacity="1"><g transform="translate(140.141502, 277.722111)"><g><path d="M 1.441406 0 L 1.441406 -2.425781 L 2.171875 -3.445312 L 3.769531 0 L 4.5 0 L 2.664062 -4.152344 L 4.464844 -6.625 L 3.589844 -6.625 L 1.464844 -3.503906 L 1.441406 -3.503906 L 1.441406 -9 L 0.742188 -9 L 0.742188 0 Z M 1.441406 0 "/></g></g></g><g fill="rgb(100%, 100%, 100%)" fill-opacity="1"><g transform="translate(153.19751, 277.722111)"><g><path d="M 1.390625 -3.347656 C 1.390625 -4.355469 1.308594 -6.179688 2.761719 -6.179688 C 4.03125 -6.179688 4.03125 -4.152344 4.03125 -3.253906 C 4.03125 -2.375 4.042969 -0.445312 2.734375 -0.445312 C 1.320312 -0.445312 1.390625 -2.339844 1.390625 -3.347656 Z M 1.414062 -0.539062 L 1.441406 -0.539062 C 1.765625 -0.046875 2.207031 0.167969 2.796875 0.167969 C 4.726562 0.167969 4.726562 -2.039062 4.726562 -3.480469 C 4.726562 -4.894531 4.546875 -6.792969 2.734375 -6.792969 C 2.171875 -6.792969 1.714844 -6.480469 1.414062 -6.023438 L 1.390625 -6.023438 L 1.390625 -6.625 L 0.695312 -6.625 L 0.695312 2.28125 L 1.414062 2.28125 Z M 1.414062 -0.539062 "/></g></g></g><g fill="rgb(100%, 100%, 100%)" fill-opacity="1"><g transform="translate(166.913522, 277.722111)"><g><path d="M 1.679688 0 L 1.679688 -6.625 L 0.984375 -6.625 L 0.984375 0 Z M 1.738281 -7.859375 L 1.738281 -9 L 0.9375 -9 L 0.9375 -7.859375 Z M 1.738281 -7.859375 "/></g></g></g><g fill="rgb(100%, 100%, 100%)" fill-opacity="1"><g transform="translate(177.965521, 277.722111)"><g><path d="M 1.488281 -6.625 L 0.828125 -6.625 L 0.828125 0 L 1.523438 0 L 1.523438 -4.34375 C 1.523438 -5.386719 2.003906 -6.085938 3.085938 -6.058594 L 3.085938 -6.792969 C 2.316406 -6.804688 1.859375 -6.550781 1.511719 -5.855469 L 1.488281 -5.855469 Z M 1.488281 -6.625 "/></g></g></g><g fill="rgb(100%, 100%, 100%)" fill-opacity="1"><g transform="translate(189.689534, 277.722111)"><g><path d="M 3.253906 -2.410156 C 3.253906 -1.921875 3.203125 -1.355469 2.914062 -0.9375 C 2.710938 -0.636719 2.386719 -0.445312 1.933594 -0.445312 C 1.210938 -0.445312 1.007812 -0.949219 1.007812 -1.597656 C 1.007812 -2.375 1.164062 -2.652344 1.871094 -2.964844 C 2.328125 -3.15625 2.796875 -3.324219 3.253906 -3.574219 Z M 1.164062 -4.957031 C 1.273438 -5.542969 1.261719 -6.179688 2.242188 -6.179688 C 2.855469 -6.179688 3.097656 -5.914062 3.191406 -5.519531 C 3.238281 -5.242188 3.265625 -4.691406 3.214844 -4.414062 C 3.203125 -4.332031 3.144531 -4.199219 3.035156 -4.152344 C 2.449219 -3.875 1.8125 -3.683594 1.222656 -3.40625 C 0.527344 -3.046875 0.3125 -2.472656 0.3125 -1.703125 C 0.3125 -0.660156 0.601562 0.167969 1.8125 0.167969 C 2.386719 0.167969 2.929688 -0.0585938 3.277344 -0.539062 L 3.289062 -0.539062 C 3.359375 -0.226562 3.347656 -0.0585938 3.660156 0.0585938 C 3.910156 0.109375 4.1875 0.121094 4.429688 0.0234375 L 4.429688 -0.480469 C 4.019531 -0.46875 3.949219 -0.527344 3.949219 -0.925781 L 3.949219 -4.992188 C 3.949219 -5.460938 3.925781 -5.902344 3.625 -6.289062 C 3.3125 -6.671875 2.808594 -6.792969 2.257812 -6.792969 C 1.105469 -6.792969 0.457031 -6.121094 0.492188 -4.957031 Z M 1.164062 -4.957031 "/></g></g></g><g fill="rgb(100%, 100%, 100%)" fill-opacity="1"><g transform="translate(202.745549, 277.722111)"><g><path d="M 2.410156 -0.515625 C 2.230469 -0.46875 2.015625 -0.433594 1.835938 -0.503906 C 1.511719 -0.5625 1.488281 -0.898438 1.488281 -1.128906 L 1.488281 -6.011719 L 2.410156 -6.011719 L 2.410156 -6.625 L 1.488281 -6.625 L 1.488281 -8.566406 L 0.792969 -8.566406 L 0.792969 -6.625 L 0.191406 -6.625 L 0.191406 -6.011719 L 0.792969 -6.011719 L 0.792969 -1.054688 C 0.792969 -0.421875 0.898438 -0.121094 1.511719 0.0976562 C 1.753906 0.167969 2.171875 0.0976562 2.410156 0.0585938 Z M 2.410156 -0.515625 "/></g></g></g><g fill="rgb(100%, 100%, 100%)" fill-opacity="1"><g transform="translate(213.797554, 277.722111)"><g><path d="M 4.222656 -4.019531 C 4.222656 -5.28125 3.863281 -6.792969 2.328125 -6.792969 C 0.503906 -6.792969 0.421875 -4.621094 0.421875 -3.289062 C 0.421875 -1.921875 0.503906 0.167969 2.351562 0.167969 C 3.707031 0.167969 4.199219 -0.949219 4.199219 -2.160156 L 3.527344 -2.160156 C 3.46875 -1.367188 3.347656 -0.445312 2.363281 -0.445312 C 0.996094 -0.445312 1.117188 -2.496094 1.117188 -3.347656 L 4.222656 -3.347656 Z M 1.117188 -3.960938 C 1.117188 -4.738281 1.234375 -6.179688 2.316406 -6.179688 C 3.445312 -6.179688 3.527344 -4.800781 3.527344 -3.960938 Z M 1.117188 -3.960938 "/></g></g></g><g fill="rgb(100%, 100%, 100%)" fill-opacity="1"><g transform="translate(226.853568, 277.722111)"><g><path d="M 3.730469 0 L 4.511719 0 L 2.746094 -3.46875 L 4.402344 -6.625 L 3.601562 -6.625 L 2.316406 -4.066406 L 1.054688 -6.625 L 0.277344 -6.625 L 1.894531 -3.46875 L 0.15625 0 L 0.910156 0 L 2.316406 -2.808594 Z M 3.730469 0 "/></g></g></g><g fill="rgb(100%, 100%, 100%)" fill-opacity="1"><g transform="translate(239.909582, 277.722111)"><g><path d="M 1.753906 0 L 1.753906 -1.054688 L 0.925781 -1.054688 L 0.925781 0 Z M 1.753906 0 "/></g></g></g><g fill="rgb(100%, 100%, 100%)" fill-opacity="1"><g transform="translate(250.961587, 277.722111)"><g><path d="M 3.601562 -2.195312 C 3.527344 -1.441406 3.445312 -0.445312 2.472656 -0.445312 C 1.117188 -0.445312 1.140625 -2.304688 1.140625 -3.226562 C 1.140625 -4.261719 1.078125 -6.144531 2.386719 -6.179688 C 3.144531 -6.203125 3.527344 -5.472656 3.550781 -4.667969 L 4.234375 -4.667969 C 4.246094 -5.773438 3.625 -6.792969 2.4375 -6.792969 C 0.601562 -6.792969 0.445312 -4.777344 0.445312 -3.347656 C 0.445312 -1.859375 0.515625 0.167969 2.460938 0.167969 C 3.851562 0.167969 4.308594 -0.972656 4.296875 -2.195312 Z M 3.601562 -2.195312 "/></g></g></g><g fill="rgb(100%, 100%, 100%)" fill-opacity="1"><g transform="translate(264.017601, 277.722111)"><g><path d="M 2.652344 0.167969 C 4.558594 0.167969 4.753906 -1.835938 4.753906 -3.335938 C 4.753906 -4.789062 4.546875 -6.792969 2.6875 -6.792969 C 0.863281 -6.792969 0.589844 -4.957031 0.589844 -3.46875 C 0.589844 -1.933594 0.636719 0.167969 2.652344 0.167969 Z M 2.640625 -0.445312 C 1.210938 -0.445312 1.285156 -2.472656 1.285156 -3.457031 C 1.285156 -4.367188 1.355469 -6.179688 2.605469 -6.179688 C 4.03125 -6.179688 4.054688 -4.355469 4.054688 -3.324219 C 4.054688 -2.328125 4.042969 -0.445312 2.640625 -0.445312 Z M 2.640625 -0.445312 "/></g></g></g><g fill="rgb(100%, 100%, 100%)" fill-opacity="1"><g transform="translate(277.733619, 277.722111)"><g><path d="M 1.390625 -5.050781 C 1.390625 -5.640625 2.125 -6.179688 2.675781 -6.179688 C 3.574219 -6.179688 3.660156 -5.53125 3.660156 -4.789062 L 3.660156 0 L 4.355469 0 L 4.355469 -4.835938 C 4.355469 -5.675781 4.90625 -6.191406 5.710938 -6.191406 C 6.40625 -6.191406 6.625 -5.628906 6.625 -5.074219 L 6.625 0 L 7.320312 0 L 7.320312 -4.992188 C 7.320312 -6.035156 6.984375 -6.792969 5.796875 -6.792969 C 5.183594 -6.792969 4.597656 -6.5625 4.234375 -6.046875 L 4.210938 -6.046875 C 3.804688 -6.742188 3.359375 -6.792969 2.820312 -6.792969 C 2.242188 -6.792969 1.703125 -6.515625 1.414062 -6.035156 L 1.390625 -6.035156 L 1.390625 -6.625 L 0.695312 -6.625 L 0.695312 0 L 1.390625 0 Z M 1.390625 -5.050781 "/></g></g></g></svg>