<svg xmlns="http://www.w3.org/2000/svg" xmlns:xlink="http://www.w3.org/1999/xlink" width="500" zoomAndPan="magnify" viewBox="0 0 375 374.999991" height="500" preserveAspectRatio="xMidYMid meet" version="1.0"><defs><g/></defs><g fill="rgb(18.818665%, 81.959534%, 34.509277%)" fill-opacity="1"><g transform="translate(53.454171, 326.821652)"><g><path d="M 183.898438 -127.910156 C 220.269531 -136.492188 248.464844 -169.183594 248.464844 -208.007812 C 248.464844 -254.59375 210.460938 -290.558594 166.324219 -290.558594 L 63.75 -290.558594 C 28.199219 -290.558594 -0.410156 -262.359375 -0.410156 -225.988281 L -0.410156 -66.203125 C -0.410156 -31.058594 29.015625 -0.410156 63.75 -0.410156 L 171.636719 -0.410156 C 214.957031 -0.410156 262.359375 -46.996094 262.359375 -89.90625 C 262.359375 -127.09375 254.59375 -134.449219 241.109375 -149.160156 C 226.398438 -133.222656 206.375 -123.824219 183.898438 -123.007812 C 181.035156 -123.007812 181.035156 -127.09375 183.898438 -127.910156 Z M 183.898438 -127.910156 "/></g></g></g></svg>